<?xml version="1.0" encoding="utf-8"?>
<!-- Generator: Adobe Illustrator 24.1.1, SVG Export Plug-In . SVG Version: 6.00 Build 0)  -->
<svg version="1.1" xmlns="http://www.w3.org/2000/svg" xmlns:xlink="http://www.w3.org/1999/xlink" x="0px" y="0px"
	 viewBox="0 0 3000 3000" style="enable-background:new 0 0 3000 3000;" xml:space="preserve">
<style type="text/css">
	.st0{fill:#FFFFFF;}
</style>
<g id="Background_1_">
</g>
<g id="Icons">
	<path class="st0" d="M901.23,495.38H114.57c-31.92,0-57.8,25.88-57.8,57.82v1896.8c0,31.94,25.88,57.84,57.8,57.84h786.65
		c31.94,0,57.82-25.89,57.82-57.84V553.21C959.05,521.27,933.17,495.38,901.23,495.38z M843.4,2392.2H172.4V611.01H843.4V2392.2z"/>
	<path class="st0" d="M2863.57,698.12H1140.5c-31.94,0-57.85,25.88-57.85,57.82v1323.38c0,31.94,25.91,57.81,57.85,57.81h696.3
		v255.07h-104.87c-31.93,0-57.8,25.88-57.8,57.8c0,31.94,25.88,57.84,57.8,57.84h162.69h214.81h162.69
		c31.94,0,57.84-25.89,57.84-57.84c0-31.92-25.9-57.8-57.84-57.8h-104.87v-255.07h696.32c31.92,0,57.82-25.87,57.82-57.81V755.94
		C2921.39,724,2895.48,698.12,2863.57,698.12z M2051.62,2392.2h-99.2v-255.07h99.2V2392.2z M2805.74,2021.5h-696.31h-214.81H1198.3
		V813.76h1607.44V2021.5z"/>
	<path class="st0" d="M2633.23,928.45H1370.82c-31.92,0-57.8,25.88-57.8,57.82V1849c0,31.92,25.88,57.81,57.8,57.81h1262.41
		c31.92,0,57.82-25.89,57.82-57.81V986.28C2691.05,954.33,2665.14,928.45,2633.23,928.45z M2575.42,1791.17H1428.64V1044.1h1146.78
		V1791.17z"/>
	<path class="st0" d="M319.99,2166.63h375.83c31.94,0,57.82-25.88,57.82-57.81c0-31.93-25.88-57.83-57.82-57.83H319.99
		c-31.92,0-57.8,25.9-57.8,57.83C262.19,2140.75,288.07,2166.63,319.99,2166.63z"/>
	<path class="st0" d="M319.99,1935.43h375.83c31.94,0,57.82-25.88,57.82-57.84c0-31.91-25.88-57.8-57.82-57.8H319.99
		c-31.92,0-57.8,25.9-57.8,57.8C262.19,1909.54,288.07,1935.43,319.99,1935.43z"/>
	<path class="st0" d="M319.99,1704.24h375.83c31.94,0,57.82-25.88,57.82-57.84c0-31.93-25.88-57.81-57.82-57.81H319.99
		c-31.92,0-57.8,25.88-57.8,57.81C262.19,1678.35,288.07,1704.24,319.99,1704.24z"/>
	<path class="st0" d="M507.91,1090.13c55.06,0,99.71-44.65,99.71-99.71c0-55.07-44.65-99.71-99.71-99.71
		c-55.06,0-99.71,44.64-99.71,99.71C408.2,1045.48,452.85,1090.13,507.91,1090.13z"/>
</g>
</svg>
